<svg xmlns="http://www.w3.org/2000/svg" version="1.1" xmlns:xlink="http://www.w3.org/1999/xlink" xmlns:svgjs="http://svgjs.dev/svgjs" width="1000" height="750" viewBox="0 0 1000 750"><rect width="1000" height="750" fill="#000000"></rect><g transform="matrix(0.834,0,0,0.834,82.49454545454546,115.4193570850203)"><svg viewBox="0 0 396 247" data-background-color="#7a26c1" preserveAspectRatio="xMidYMid meet" height="623" width="1000" xmlns="http://www.w3.org/2000/svg" xmlns:xlink="http://www.w3.org/1999/xlink"><g id="tight-bounds" transform="matrix(1,0,0,1,0.2400000000000091,-0.09999999999999432)"><svg viewBox="0 0 395.52 247.2" height="247.2" width="395.52"><g><svg></svg></g><g><svg viewBox="0 0 395.52 247.2" height="247.2" width="395.52"><g transform="matrix(1,0,0,1,75.54432,102.18995386861315)"><svg viewBox="0 0 244.43135999999998 42.82009226277371" height="42.82009226277371" width="244.43135999999998"><g><svg viewBox="0 0 244.43135999999998 42.82009226277371" height="42.82009226277371" width="244.43135999999998"><g><svg viewBox="0 0 244.43136 42.82009226277372" height="42.82009226277371" width="244.43135999999998"><g><svg viewBox="0 0 244.43136 42.82009226277372" height="42.82009226277372" width="244.43136"><g id="textblocktransform"><svg viewBox="0 0 244.43136 42.82009226277372" height="42.82009226277372" width="244.43136" id="textblock"><g><svg viewBox="0 0 244.43136 42.82009226277372" height="42.82009226277372" width="244.43136"><g transform="matrix(1,0,0,1,0,0)"><svg width="244.43136" viewBox="2.809999942779541 -40.5 234.1199951171875 41.0099983215332" height="42.82009226277372" data-palette-color="#ffffff"><path d="M2.81-19.43L2.81-19.43Q2.81-23.46 4.32-26.97 5.83-30.47 8.74-33.06 11.65-35.64 15.88-37.13 20.12-38.62 25.59-38.62L25.59-38.62Q27.56-38.62 29.55-38.42 31.54-38.21 33.48-37.77 35.42-37.33 37.27-36.66 39.11-35.99 40.77-35.06L40.77-35.06 37.21-29.2Q36.21-29.79 34.94-30.26 33.67-30.74 32.21-31.07 30.76-31.4 29.21-31.57 27.66-31.74 26.1-31.74L26.1-31.74Q22.49-31.74 19.65-30.82 16.82-29.91 14.87-28.26 12.92-26.61 11.89-24.32 10.86-22.02 10.86-19.29L10.86-19.29Q10.86-16.46 11.94-14.09 13.01-11.72 14.99-10.01 16.97-8.3 19.78-7.34 22.58-6.37 26.05-6.37L26.05-6.37Q28.81-6.37 31.1-6.99 33.4-7.62 35.11-8.76 36.82-9.91 37.89-11.54 38.96-13.16 39.31-15.19L39.31-15.19 25.98-15.19 25.98-21.56 46.26-21.56 46.26-21.53 46.29-21.56Q46.9-18.63 46.67-15.86 46.44-13.09 45.4-10.63 44.36-8.18 42.55-6.13 40.75-4.08 38.23-2.6 35.72-1.12 32.52-0.31 29.32 0.51 25.51 0.51L25.51 0.51Q20.19 0.51 15.98-1.05 11.77-2.61 8.84-5.32 5.91-8.03 4.36-11.67 2.81-15.31 2.81-19.43ZM52.78-14.4L52.78-14.4Q52.78-17.5 54.04-20.21 55.3-22.92 57.63-24.95 59.96-26.98 63.27-28.15 66.57-29.32 70.7-29.32L70.7-29.32Q74.83-29.32 78.13-28.15 81.44-26.98 83.77-24.95 86.11-22.92 87.36-20.21 88.62-17.5 88.62-14.4L88.62-14.4Q88.62-11.3 87.36-8.59 86.11-5.88 83.77-3.86 81.44-1.83 78.13-0.66 74.83 0.51 70.7 0.51L70.7 0.51Q66.57 0.51 63.27-0.66 59.96-1.83 57.63-3.86 55.3-5.88 54.04-8.59 52.78-11.3 52.78-14.4ZM60.37-14.4L60.37-14.4Q60.37-12.67 61.07-11.12 61.77-9.57 63.1-8.39 64.43-7.2 66.34-6.51 68.26-5.81 70.7-5.81L70.7-5.81Q73.14-5.81 75.06-6.51 76.98-7.2 78.31-8.39 79.64-9.57 80.33-11.12 81.03-12.67 81.03-14.4L81.03-14.4Q81.03-16.14 80.33-17.7 79.64-19.26 78.31-20.45 76.98-21.63 75.06-22.33 73.14-23.02 70.7-23.02L70.7-23.02Q68.26-23.02 66.34-22.33 64.43-21.63 63.1-20.45 61.77-19.26 61.07-17.7 60.37-16.14 60.37-14.4ZM93.7-14.28L93.7-14.28Q93.7-17.72 94.99-20.5 96.28-23.27 98.57-25.23 100.85-27.2 103.99-28.26 107.12-29.32 110.79-29.32L110.79-29.32Q112.35-29.32 113.87-29.13 115.4-28.93 116.8-28.59 118.21-28.25 119.44-27.77 120.67-27.29 121.63-26.73L121.63-26.73 121.63-40.5 128.85-40.5 128.85 0 121.63 0 121.63-2.71Q120.67-2.05 119.38-1.46 118.09-0.88 116.6-0.44 115.11 0 113.51 0.26 111.91 0.51 110.35 0.51L110.35 0.51Q106.68 0.51 103.62-0.56 100.56-1.64 98.36-3.59 96.16-5.54 94.93-8.26 93.7-10.99 93.7-14.28ZM101.29-14.28L101.29-14.28Q101.29-12.55 101.98-11.01 102.68-9.47 103.99-8.31 105.29-7.15 107.14-6.48 108.98-5.81 111.27-5.81L111.27-5.81Q112.74-5.81 114.2-6.09 115.67-6.37 117.02-6.88 118.38-7.4 119.56-8.13 120.75-8.86 121.63-9.77L121.63-9.77 121.63-19.75Q120.53-20.63 119.31-21.24 118.09-21.85 116.82-22.24 115.55-22.63 114.25-22.81 112.96-23 111.74-23L111.74-23Q109.25-23 107.31-22.33 105.37-21.66 104.04-20.48 102.7-19.31 102-17.72 101.29-16.14 101.29-14.28ZM147.36 0L133.71-28.83 142.08-28.83 149.58-11.5 151.77-6.64 154.46-12.94 147.33-28.83 154.36-28.83 157.85-20.29 161.35-28.83 168.38-28.83 161.22-12.94 163.93-6.64 166.13-11.5 173.63-28.83 182-28.83 168.35 0 160.49 0 157.85-5.57 155.22 0 147.36 0ZM190.86-32.74L190.86-32.74Q189.78-32.74 188.92-33.04 188.05-33.35 187.44-33.87 186.83-34.4 186.5-35.1 186.17-35.79 186.17-36.57L186.17-36.57Q186.17-37.38 186.5-38.07 186.83-38.77 187.44-39.28 188.05-39.79 188.92-40.1 189.78-40.41 190.86-40.41L190.86-40.41Q191.96-40.41 192.82-40.1 193.69-39.79 194.3-39.28 194.91-38.77 195.24-38.07 195.57-37.38 195.57-36.57L195.57-36.57Q195.57-35.79 195.24-35.1 194.91-34.4 194.3-33.87 193.69-33.35 192.82-33.04 191.96-32.74 190.86-32.74ZM187.25 0L187.25-28.81 194.47-28.81 194.47 0 187.25 0ZM203.72 0L203.72-28.81 210.95-28.81 210.95-26.37Q213.83-28 216.45-28.66 219.08-29.32 221.59-29.32L221.59-29.32Q224.89-29.32 227.7-28.36 230.51-27.39 232.56-25.49 234.61-23.58 235.77-20.74 236.93-17.9 236.93-14.16L236.93-14.16 236.93 0 229.72 0 229.72-12.99Q229.72-15.36 229.05-17.22 228.38-19.09 227.12-20.37 225.87-21.66 224.07-22.33 222.28-23 220.06-23L220.06-23Q218.88-23 217.65-22.75 216.42-22.51 215.23-22.06 214.05-21.61 212.95-20.94 211.85-20.26 210.95-19.41L210.95-19.41 210.95 0 203.72 0Z" opacity="1" transform="matrix(1,0,0,1,0,0)" fill="#ffffff" class="undefined-text-0" data-fill-palette-color="primary" id="text-0"></path></svg></g></svg></g></svg></g></svg></g></svg></g></svg></g></svg></g><path d="M209.787 96.19L209.787 34.369 388.25 34.369 388.25 212.831 209.787 212.831 209.787 151.01 213.649 151.01 213.649 208.97 384.388 208.97 384.388 38.23 213.649 38.23 213.649 96.19Z" fill="#ffffff" stroke="transparent" data-fill-palette-color="primary"></path></svg></g><defs></defs></svg><rect width="395.52" height="247.2" fill="none" stroke="none" visibility="hidden"></rect></g></svg></g></svg>