<svg xmlns="http://www.w3.org/2000/svg" xmlns:xlink="http://www.w3.org/1999/xlink" version="1.1" id="Layer_1" x="0px" y="0px" width="100%" viewBox="0 0 720 656" enable-background="new 0 0 720 656" xml:space="preserve">
    <path fill="#00FF00" opacity="1.00000" stroke="none" d=" M350.437500,657.000000   C355.860352,651.341980 356.688568,644.453308 356.500610,636.589844   C356.430023,633.636169 359.569885,628.969666 364.282043,628.037354   C366.489594,627.600586 368.602936,627.788635 370.171204,629.687561   C370.888153,630.555664 370.871826,631.514832 370.197662,632.416931   C368.606689,634.545959 366.743073,632.594299 365.193420,632.362122   C364.136658,634.645935 367.127716,634.779602 366.575348,636.892822   C362.218872,638.585754 362.299133,643.095398 361.480957,646.981995   C360.747040,650.468323 359.716522,653.689514 357.176086,656.698975   C354.958344,657.000000 352.916656,657.000000 350.437500,657.000000  z"/>
<path fill="#000000" opacity="1.000000" stroke="none" d=" M283.960724,169.024460   C295.101227,162.341858 307.663391,163.877441 320.283936,163.570282   C319.523499,156.032547 319.494019,149.325531 321.300140,142.607788   C326.728790,122.416534 344.404724,109.742912 366.313416,110.711845   C385.466827,111.558929 402.199615,127.029701 405.481689,146.703278   C406.203674,151.031143 406.705109,155.304123 405.718811,159.584808   C404.956482,162.893478 406.392639,163.763504 409.356476,163.698471   C413.520386,163.607101 417.694061,163.834213 421.852814,163.663452   C428.929352,163.372894 435.792725,164.097244 442.220306,167.344528   C436.457550,161.370010 430.838226,155.396072 425.052612,149.587799   C419.311310,143.824005 413.402557,138.227005 407.367310,132.362625   C414.416626,125.138779 420.741364,118.373428 427.415924,111.972855   C429.730164,109.753593 431.262024,112.743530 432.645081,114.112640   C445.316620,126.656326 457.915344,139.273544 470.534210,151.870468   C505.442749,186.718246 540.303162,221.614517 575.335266,256.337677   C578.699280,259.671967 578.396851,261.425323 575.216003,264.593597   C527.872314,311.749298 480.656952,359.033875 433.399384,406.276062   C432.010498,407.664490 430.852051,409.394928 428.182648,410.026031   C421.929260,403.768646 415.434509,397.357391 409.052460,390.835907   C406.832184,388.567108 409.251099,387.243530 410.537109,385.950470   C422.052063,374.372009 433.613831,362.840027 445.173920,351.306519   C474.546844,322.001190 503.898041,292.673920 533.351807,263.450104   C535.926392,260.895660 535.644958,259.296967 533.254395,256.935028   C510.258118,234.213501 487.338867,211.413971 464.400513,188.633804   C461.614960,185.867493 458.846771,183.083710 455.809387,180.415131   C459.135498,187.603119 459.378479,195.163620 459.362274,202.836823   C459.280762,241.498093 459.370789,280.159729 459.300232,318.821045   C459.269501,335.670715 449.818604,347.881165 434.202118,351.773407   C431.560760,352.431732 428.909637,352.329590 426.256134,352.330963   C385.428314,352.352234 344.600494,352.377289 303.772705,352.335480   C284.747894,352.316010 270.907593,339.277924 270.780701,320.304047   C270.502136,278.645081 270.693024,236.982803 270.755768,195.321960   C270.766083,188.472549 273.152893,182.290100 277.119720,175.968109   C279.601562,173.251892 281.781128,171.138168 283.960724,169.024460  M445.365448,338.862976   C449.519012,334.118866 452.689819,328.882172 452.697540,322.355347   C452.748291,279.528137 452.849548,236.700439 452.685455,193.873856   C452.637970,181.475113 442.302094,171.067810 429.876740,170.348846   C423.397247,169.973923 416.879822,170.296738 410.390411,170.035095   C406.653168,169.884430 404.287903,171.101364 402.329529,174.467117   C397.598663,182.597778 390.945923,189.743469 382.131287,192.319794   C371.841553,195.327255 370.133698,201.406738 371.342499,210.301575   C371.542603,211.774109 371.369446,213.297379 371.368927,214.797195   C371.364624,227.128983 371.415588,239.461136 371.331451,251.792374   C371.292786,257.453308 368.037567,261.063354 363.157715,261.235382   C358.653625,261.394165 355.198853,258.124542 354.412323,252.783218   C354.122620,250.815765 354.039917,248.803223 354.034821,246.810791   C353.996674,231.979416 353.886292,217.146500 354.068268,202.317383   C354.118744,198.206985 352.926270,196.031235 348.762756,194.771408   C340.440765,192.253296 332.518860,187.759171 328.273804,180.422226   C322.629181,170.666382 314.937347,168.723526 305.069244,170.058548   C304.577454,170.125061 304.070312,170.073120 303.570648,170.087097   C287.228302,170.544159 277.287384,180.453094 277.234772,196.888031   C277.104095,237.716019 277.083252,278.544830 277.186615,319.372894   C277.228180,335.791473 287.218597,345.965210 303.649994,346.037476   C344.620514,346.217590 385.592377,346.098328 426.563690,346.095245   C433.481354,346.094727 439.709351,344.207153 445.365448,338.862976  M360.323975,205.614914   C360.324493,209.440186 360.325165,213.265442 360.325531,217.090714   C360.326599,228.233856 360.318726,239.377014 360.337219,250.520126   C360.340302,252.374344 360.304352,254.490311 362.880798,254.566116   C365.418335,254.640762 365.631897,252.660721 365.648285,250.719910   C365.656708,249.722092 365.657471,248.724182 365.657562,247.726303   C365.658966,233.755753 365.662079,219.785202 365.657837,205.814651   C365.657227,203.819305 365.647186,201.823212 365.591644,199.828857   C365.547150,198.232071 364.705627,197.415878 363.073456,197.406982   C361.510223,197.398483 360.487457,198.018982 360.410431,199.676117   C360.333252,201.336060 360.349945,203.000366 360.323975,205.614914  M342.739655,147.561691   C345.166626,140.300018 350.439880,136.648148 357.817719,135.633133   C360.208588,135.304230 362.101196,134.223923 361.707672,131.487488   C361.322845,128.811432 359.208313,128.257263 356.828186,128.383850   C346.352722,128.940979 336.239471,138.641571 335.236664,149.161804   C334.985992,151.791611 334.366119,155.035889 338.104645,155.474228   C341.626862,155.887222 341.484314,152.584412 342.067078,150.251694   C342.227997,149.607544 342.416016,148.970154 342.739655,147.561691  z"/>
<path fill="#000000" opacity="1.000000" stroke="none" d=" M284.149536,168.746918   C281.781128,171.138168 279.601562,173.251892 277.242493,175.629883   C267.616150,183.839478 259.468842,193.112610 250.697983,201.747711   C232.295013,219.865875 213.997284,238.090958 195.676544,256.292480   C194.521301,257.440216 193.058670,258.397797 192.441467,261.235657   C234.779831,303.486633 277.518127,346.136688 320.605103,389.134705   C313.928589,396.021667 307.705536,402.466339 301.450806,408.880127   C298.975769,411.418060 297.571655,408.907471 296.171814,407.521790   C286.105164,397.556793 276.108917,387.520660 266.084869,377.512543   C228.230103,339.718048 190.372238,301.926636 152.522476,264.127106   C151.474228,263.080261 150.504730,261.954590 149.991989,261.399689   C199.848007,211.144257 249.528748,161.065491 299.280701,110.914963   C303.820892,115.279594 308.516022,119.646423 313.044708,124.179558   C320.745453,131.887894 320.700287,131.930771 312.879456,139.788162   C303.364624,149.347458 293.851929,158.908875 284.149536,168.746918  z"/>
<path fill="#000000" opacity="1.000000" stroke="none" d=" M391.889862,491.036377   C393.839844,474.565247 395.843933,458.557037 397.648438,442.526337   C398.019196,439.232422 399.556824,437.514008 402.530426,436.384308   C407.686035,434.425659 412.991852,434.116547 418.269043,435.050720   C427.238739,436.638641 431.044037,442.328918 430.015015,452.233215   C428.552979,466.305267 426.550110,480.303009 423.820129,494.190979   C421.478851,506.101410 418.671814,517.906006 415.992584,529.739807   C413.605347,540.283875 407.375763,544.927612 397.406616,545.912048   C391.094788,546.535339 384.775604,546.652527 378.554474,544.998657   C372.636780,543.425415 368.594360,540.093811 366.975220,533.878296   C364.375397,523.898071 361.465851,513.998657 358.284271,502.624603   C356.738251,509.078796 355.529266,514.240051 354.261780,519.386902   C352.868469,525.044678 351.386078,530.680542 350.010681,536.342529   C349.156403,539.859558 347.135986,542.132629 343.708374,543.465881   C332.930237,547.658325 322.220062,547.221375 311.530914,543.285156   C306.749054,541.524292 304.252563,537.728088 302.774872,533.051636   C296.545349,513.337097 292.198944,493.184235 288.739777,472.827271   C287.206696,463.805023 285.886871,454.745941 284.298981,445.733765   C283.679749,442.219086 284.996826,440.067474 287.927032,438.340515   C293.477448,435.069305 299.438202,434.039398 305.720856,434.845734   C313.365479,435.826874 317.875916,440.543640 319.128113,448.791809   C322.223053,469.177917 325.254364,489.573700 328.322723,509.963867   C328.439575,510.740387 328.675995,511.498871 329.772949,512.367371   C332.091614,502.618286 334.444397,492.877167 336.716309,483.117249   C338.112335,477.119965 339.466644,471.110229 340.671509,465.072540   C341.147888,462.685486 342.281982,461.251465 344.585083,460.429840   C351.672791,457.901489 358.788605,457.337799 366.134613,459.293396   C372.237671,460.918091 375.650909,464.624573 377.177063,470.805023   C380.599518,484.665070 384.422852,498.426117 388.478699,512.185913   C390.155731,505.303009 391.418854,498.461945 391.889862,491.036377  z"/>
<path fill="#000000" opacity="1.000000" stroke="none" d=" M546.213135,452.896027   C553.738831,468.470245 561.879761,483.332214 569.024414,498.895203   C568.682129,492.662354 568.114075,486.432007 568.044250,480.196106   C567.896851,467.039612 568.054871,453.880035 567.988159,440.722198   C567.969421,437.026733 569.057739,434.943481 573.203857,434.403442   C579.194336,433.623169 585.080139,433.166107 591.020325,434.548401   C595.811523,435.663239 598.502380,438.700256 599.221375,443.461060   C599.642456,446.249023 600.012939,449.078522 600.018494,451.890106   C600.072815,479.372467 600.052612,506.855042 600.036072,534.337524   C600.032043,541.121277 598.830627,542.940369 592.464783,544.778625   C584.608704,547.047180 576.667847,546.871521 568.807373,544.705261   C563.021973,543.110718 559.778870,538.753723 557.322632,533.633484   C548.903076,516.082092 539.743164,498.886627 531.434387,479.558228   C531.434387,484.720886 531.208862,488.505768 531.473694,492.256012   C532.578369,507.898407 531.606384,523.553528 531.930664,539.198059   C532.004272,542.747070 530.550354,544.601929 526.883606,545.327942   C521.910217,546.312561 516.943176,546.421021 511.968933,546.096252   C505.742706,545.689758 502.288635,542.534302 500.769684,536.497925   C500.073181,533.730286 499.887054,530.929626 499.887756,528.081543   C499.894287,502.098053 500.102051,476.111023 499.717590,450.132874   C499.565765,439.874939 501.369934,436.376495 514.173767,433.956055   C519.010315,433.041748 524.083374,433.405731 529.050964,434.556580   C534.789795,435.886108 539.065796,438.865997 541.754639,444.099670   C543.200073,446.913177 544.617310,449.741180 546.213135,452.896027  z"/>
<path fill="#000000" opacity="1.000000" stroke="none" d=" M103.904366,494.714386   C103.288216,472.596313 110.437302,454.452942 129.234924,442.618744   C147.258179,431.272125 167.018951,429.797882 187.402664,435.105560   C190.964111,436.032959 194.220856,437.782104 197.203278,439.962891   C205.265976,445.858398 206.483597,455.319489 200.375214,463.175995   C197.970566,466.268799 195.612381,467.204407 191.887283,465.112244   C184.662888,461.054749 176.842743,458.992371 168.456879,459.124268   C149.761398,459.418457 137.865982,471.098602 137.444016,489.732178   C136.967896,510.756805 153.293060,524.635986 172.862793,520.056213   C176.523911,519.199402 177.747345,517.478943 177.685257,513.872009   C177.475464,501.683990 178.711258,503.343842 167.456924,503.233704   C158.004425,503.141174 155.500870,500.791595 155.169540,491.392365   C154.875046,483.038544 159.290604,478.122528 167.742920,477.942780   C177.232254,477.740936 186.733139,477.719513 196.221481,477.940979   C204.638412,478.137390 208.883194,482.265320 209.069427,490.698883   C209.330444,502.518372 209.216461,514.348938 209.091339,526.172974   C209.021500,532.773315 205.914429,537.901306 199.829834,540.397522   C173.929077,551.023560 148.466812,551.179260 124.629059,535.046082   C112.737358,526.997864 106.718811,514.765320 104.673393,500.614746   C104.411621,498.803741 104.174988,496.989105 103.904366,494.714386  z"/>
<path fill="#000000" opacity="1.000000" stroke="none" d=" M445.671692,532.878174   C444.501434,503.125916 445.416992,473.805969 444.994843,444.496582   C444.922485,439.475464 446.589050,436.834625 451.613678,435.759979   C456.411438,434.733856 461.188202,434.406372 465.994690,434.813507   C474.143982,435.503784 478.222473,440.143250 478.252106,448.889191   C478.341309,475.208496 478.296143,501.528259 478.304443,527.847839   C478.305756,532.012329 478.221191,536.179565 478.347015,540.340393   C478.437317,543.325134 477.357452,544.843262 474.251312,545.440186   C468.445068,546.555969 462.612091,546.607422 456.844177,545.926270   C449.917511,545.108154 446.712708,541.131836 445.671692,532.878174  z"/>
<path fill="#000000" opacity="1.000000" stroke="none" d=" M275.336792,504.081238   C273.356659,510.509521 270.285828,513.067566 264.130249,513.130676   C252.500931,513.250061 240.869095,513.111145 229.239182,513.198242   C226.316208,513.220093 224.675995,511.951691 223.535446,509.367584   C221.724182,505.263855 221.272202,501.015808 222.017868,496.691132   C222.914246,491.492401 226.702606,487.888336 231.939148,487.797119   C244.230453,487.583038 256.527924,487.736603 268.822754,487.697021   C271.078552,487.689758 272.618622,488.556671 273.498596,490.664795   C275.244751,494.847931 276.630585,499.071045 275.336792,504.081238  z"/>
<path fill="#000000" opacity="1.000000" stroke="none" d=" M545.028198,623.212402   C549.394531,621.242188 553.870483,622.823425 558.185852,621.306396   C561.501221,620.140991 562.151428,624.211731 562.185669,627.199829   C562.217407,629.968933 560.521240,633.207336 564.544922,634.891602   C563.186157,637.381287 561.169495,638.529541 559.069763,637.533081   C553.985474,635.120117 556.959351,630.185242 555.985779,625.796936   C553.165466,628.107727 553.261169,630.969666 553.210693,633.787842   C553.171814,635.957397 553.383057,638.598206 550.342773,638.661255   C546.982239,638.730896 547.885437,635.834412 547.674744,633.833862   C547.457031,631.767456 548.397583,629.611694 547.112244,627.208557   C544.452515,629.645020 545.171143,632.879944 544.482056,635.599976   C543.982910,637.570374 543.890869,639.920532 541.217590,639.799133   C538.225342,639.663269 538.945251,637.108826 538.861511,635.215210   C538.710876,631.808350 540.299438,628.322937 538.080872,624.894470   C540.143433,623.210571 542.307373,622.856323 545.028198,623.212402  z"/>
<path fill="#000000" opacity="1.000000" stroke="none" d=" M515.330200,626.793213   C519.342285,625.040283 523.332764,626.041809 527.194336,625.242310   C531.060364,624.441772 531.322449,628.581787 531.116638,631.681396   C530.936707,634.391174 529.505371,637.287231 532.889648,639.081726   C528.394836,643.112244 525.115356,641.937805 524.986206,636.566528   C524.935547,634.458740 525.240356,632.342346 525.424133,629.626770   C522.613342,630.976868 522.519104,633.128662 522.223633,635.110229   C521.979553,636.746948 521.973022,638.421753 521.687622,640.049194   C521.378662,641.809875 520.063843,642.506409 518.402649,642.425110   C516.357117,642.324951 516.128723,640.775879 516.183350,639.206970   C516.274475,636.593079 517.297363,633.998657 516.229004,630.908386   C513.724304,632.556152 513.714783,635.066895 513.286438,637.348511   C512.826172,639.800354 513.557556,643.600464 509.568970,642.987183   C505.911438,642.424683 507.882477,638.937256 507.884918,636.761353   C507.888062,633.941895 507.910309,631.164490 507.057190,628.438354   C509.333221,625.540161 512.379700,627.405151 515.330200,626.793213  z"/>
<path fill="#000000" opacity="1.000000" stroke="none" d=" M444.541168,654.771362   C443.902100,654.204712 443.453583,653.889038 443.257629,653.458435   C442.825165,652.508057 447.495178,633.922913 448.291534,633.322815   C451.653809,630.789490 455.952240,631.803040 459.676056,630.414978   C461.079437,629.891907 462.727295,632.078430 461.485046,633.396729   C458.316833,636.758728 457.915771,642.791321 450.598999,643.313538   C452.968353,643.918274 454.057007,644.080933 455.056824,644.471191   C459.516541,646.212036 460.113892,650.393677 456.244537,653.284058   C452.796387,655.859802 448.882599,656.002869 444.541168,654.771362  z"/>
<path fill="#000000" opacity="1.000000" stroke="none" d=" M618.548401,626.670898   C619.995178,630.140686 618.975830,632.565674 616.256897,634.277588   C613.003052,636.326355 609.435120,637.072327 605.806641,635.549561   C603.802307,634.708374 603.366028,632.842651 604.564575,630.961365   C606.638794,627.705811 606.783447,624.278870 606.033386,620.610779   C605.124878,616.168274 607.535156,613.343994 611.479675,612.499390   C614.248474,611.906616 617.271118,608.867981 619.754333,611.030212   C622.410767,613.343323 617.819214,615.125671 617.848083,617.919067   C617.881958,621.192627 614.910034,623.132446 610.835022,624.092957   C613.996887,625.172852 616.599854,624.315002 618.548401,626.670898  z"/>
<path fill="#000000" opacity="1.000000" stroke="none" d=" M199.605774,624.683167   C199.683365,622.827087 199.683365,621.357361 199.683365,619.829041   C205.279312,617.560974 206.819275,618.742920 206.202835,624.998596   C213.545456,627.151733 213.845795,627.445679 211.315216,634.921265   C210.442856,637.498291 211.596466,639.252930 212.556641,641.113342   C210.664001,643.296509 208.679718,643.510681 206.581741,642.243408   C204.295914,640.862671 204.579697,638.663635 205.012360,636.473145   C205.413940,634.440063 206.736908,632.577393 206.322601,629.735657   C203.034271,631.856995 202.152054,634.852295 201.211868,637.782166   C200.477615,640.070374 199.311310,641.933105 196.600845,640.952026   C193.620850,639.873474 195.351761,637.627869 195.870316,635.916199   C196.976135,632.266296 198.296005,628.681213 199.605774,624.683167  z"/>
<path fill="#000000" opacity="1.000000" stroke="none" d=" M390.428711,650.100098   C386.883514,651.731567 383.598389,651.681580 380.037994,650.187561   C384.044495,643.890015 385.811584,637.429260 384.129120,629.907410   C388.368805,628.422180 392.588348,628.758728 396.679199,630.293945   C399.299683,631.277344 400.351074,633.595886 400.097412,636.357605   C399.761932,640.010193 397.394073,642.430359 394.104340,642.805725   C388.765961,643.414734 388.685089,645.908264 390.428711,650.100098  M393.565887,634.457581   C389.664978,634.579834 391.104431,637.260132 390.818787,639.642761   C393.870209,638.976929 393.908600,637.081238 393.565887,634.457581  z"/>
<path fill="#000000" opacity="1.000000" stroke="none" d=" M491.693787,628.654541   C494.505493,628.555603 496.957092,628.555603 499.359406,628.555603   C501.640808,633.321899 496.536346,638.624573 501.275269,642.325500   C500.905945,644.225159 499.591034,644.966309 498.328247,644.951721   C495.235718,644.916138 492.253998,645.276794 489.189819,645.675659   C485.273468,646.185425 483.937561,642.497742 484.151001,639.138977   C484.451385,634.412720 486.337189,630.411194 491.693787,628.654541  M492.939728,638.966187   C493.679962,636.865540 494.433472,634.764282 492.812683,632.375916   C489.979828,634.326721 489.777740,636.967224 490.178436,639.486511   C490.578827,642.003540 491.755585,640.745422 492.939728,638.966187  z"/>
<path fill="#000000" opacity="1.000000" stroke="none" d=" M128.228943,613.902832   C127.172600,615.475952 126.326294,616.026367 124.882462,614.700378   C120.963615,611.101379 120.584961,611.242004 118.558151,616.368591   C119.255943,618.565430 122.561020,617.164551 123.259407,620.434204   C119.320274,621.560486 111.451805,619.916077 116.004593,628.648682   C111.928833,629.222778 108.875282,628.689514 105.949524,626.821350   C111.101547,621.206970 114.332985,612.776733 113.286766,607.806702   C118.040146,607.172974 122.460915,608.689636 126.933434,609.698181   C129.267212,610.224304 129.089355,611.831177 128.228943,613.902832  z"/>
<path fill="#000000" opacity="1.000000" stroke="none" d=" M583.709229,631.318115   C583.698975,628.743286 583.602112,626.575989 583.795776,624.434875   C583.983582,622.358948 583.167969,620.561157 582.398254,618.154480   C586.464661,616.352234 590.904480,616.299011 595.066772,615.938660   C597.787659,615.703125 598.216675,618.901245 598.163635,621.295044   C598.097412,624.285645 597.784973,627.282410 600.641968,629.215454   C599.434143,631.916382 597.476624,632.538757 595.195679,631.824280   C592.882507,631.099792 592.713013,629.003235 592.655457,626.930054   C592.602051,625.005188 593.090942,623.007080 591.979736,620.606018   C588.618652,622.941101 589.454163,626.262207 589.054321,629.119324   C588.822021,630.778809 588.670288,632.528503 586.779053,633.191345   C585.386963,633.679382 584.122803,633.544067 583.709229,631.318115  z"/>
<path fill="#000000" opacity="1.000000" stroke="none" d=" M423.842896,639.126465   C424.059021,638.617493 424.132904,638.468933 424.207581,638.320740   C426.440613,633.890442 430.100342,631.987793 434.871674,633.031250   C438.256592,633.771545 439.499878,636.499268 439.421753,639.853210   C439.309753,644.661194 436.265961,648.052612 431.759460,649.726013   C426.966064,651.505920 420.845245,645.970886 423.842896,639.126465  M432.922119,643.239685   C433.527069,640.981873 434.697662,638.654541 432.288727,636.637085   C429.725708,639.038879 428.774353,641.082825 429.244629,643.362915   C429.876678,646.427185 431.170410,645.877319 432.922119,643.239685  z"/>
<path fill="#000000" opacity="1.000000" stroke="none" d=" M342.494141,651.050781   C338.950928,651.515503 335.970520,651.176025 334.456818,647.971191   C332.729431,644.314148 333.620331,640.790771 336.075745,637.785339   C338.283630,635.082825 341.224396,633.570496 344.823608,634.400940   C350.809296,635.782166 352.031311,643.293762 347.034088,648.350464   C345.917206,649.480713 344.286926,650.103638 342.494141,651.050781  M343.799591,643.353027   C343.954834,641.681152 345.241760,639.840393 343.107178,638.495789   C339.142914,641.020142 338.451111,643.811401 340.995148,647.286804   C342.592896,646.793640 343.095001,645.399353 343.799591,643.353027  z"/>
<path fill="#000000" opacity="1.000000" stroke="none" d=" M273.483765,646.826172   C269.580383,648.719666 265.970184,649.205322 263.206696,645.860046   C260.663849,642.781982 261.410461,639.275208 263.377563,636.151489   C265.694611,632.472046 269.079651,630.650330 273.495728,631.626648   C277.680878,632.551880 279.437775,636.856873 277.677490,641.589905   C276.912506,643.646606 275.681976,645.383362 273.483765,646.826172  M271.192474,642.334351   C271.951324,640.145813 273.564392,638.011780 271.740265,635.348877   C268.178955,636.680725 267.427704,639.683594 267.587280,642.482971   C267.749969,645.337585 269.501160,644.355408 271.192474,642.334351  z"/>
<path fill="#000000" opacity="1.000000" stroke="none" d=" M136.654236,616.541626   C140.424576,615.959106 143.413605,616.662415 145.091690,619.925232   C146.973541,623.584473 145.354889,626.799805 143.058990,629.559875   C140.817978,632.253906 137.808441,633.696228 134.180038,632.810181   C129.346359,631.629883 127.596855,627.034729 130.110291,622.073792   C131.423599,619.481628 133.336761,617.435364 136.654236,616.541626  M137.227432,620.950439   C135.486115,623.134888 134.014206,625.393311 134.979965,628.428040   C138.228958,627.651428 139.884949,625.830322 140.209183,623.025757   C140.429916,621.116272 139.844406,620.156250 137.227432,620.950439  z"/>
<path fill="#000000" opacity="1.000000" stroke="none" d=" M233.760941,631.927124   C232.985550,637.512085 227.542236,636.888733 224.516556,639.277893   C226.023483,642.110474 228.399719,639.441833 229.998474,640.593628   C229.198074,643.868652 228.370377,644.390198 224.662231,644.263123   C220.927612,644.135010 218.746140,642.178345 218.148376,638.611023   C217.499023,634.735779 221.098053,629.260925 225.183792,628.204956   C228.658051,627.307007 232.284027,626.902222 233.760941,631.927124  z"/>
<path fill="#000000" opacity="1.000000" stroke="none" d=" M315.260437,648.607422   C311.301971,651.082520 307.552765,651.280701 304.814575,647.674316   C302.273621,644.327637 303.330017,640.757935 305.769073,637.606812   C308.512085,634.063110 312.127350,632.733215 316.330261,634.272400   C319.633148,635.481934 319.654205,639.504395 316.322571,641.806091   C314.360199,643.161804 311.981110,643.914368 309.781464,644.941895   C310.607025,647.339539 312.143250,646.541138 313.540802,646.264771   C315.231812,645.930298 316.243011,646.277649 315.260437,648.607422  z"/>
<path fill="#000000" opacity="1.000000" stroke="none" d=" M291.056030,640.308472   C291.222717,641.277039 291.360992,641.900208 291.627106,643.099304   C294.102478,641.238159 295.135223,639.381226 294.215454,636.650208   C293.563416,634.714111 294.055939,633.203430 296.256378,633.127930   C298.289642,633.058289 299.048553,634.601562 299.147766,636.450012   C299.332672,639.895813 293.603119,648.066956 290.286682,648.973328   C287.701630,649.679688 286.127441,648.738831 285.830444,645.930725   C285.604401,643.793274 285.352509,641.652405 284.965790,639.539856   C284.588165,637.477112 284.024994,635.448364 283.544037,633.407959   C289.421387,631.934509 289.852570,632.318298 291.056030,640.308472  z"/>
<path fill="#000000" opacity="1.000000" stroke="none" d=" M250.750046,632.837036   C251.842133,629.929871 252.062683,627.346680 251.163300,624.773010   C253.694839,623.352417 256.074707,623.114624 257.873413,624.860779   C259.597046,626.534058 257.964600,628.599426 257.465210,630.434753   C256.770844,632.986633 256.104614,635.570312 255.103790,638.007935   C254.055466,640.561340 254.486237,642.767334 256.240387,644.907410   C254.180084,646.970459 252.143021,647.655518 249.858719,646.155579   C247.667664,644.716919 247.894501,642.576050 248.579498,640.376892   C249.317032,638.009094 249.967377,635.614075 250.750046,632.837036  z"/>
<path fill="#000000" opacity="1.000000" stroke="none" d=" M410.931885,643.124512   C409.587708,645.983215 410.847137,651.184753 406.032196,649.901062   C401.787415,648.769470 404.844269,644.815491 405.186951,642.262451   C405.525452,639.740540 405.541016,637.415894 404.332947,634.695984   C408.531189,633.132690 412.658875,633.742554 416.607147,633.546204   C418.625916,633.445801 419.790649,635.458374 418.904266,637.544800   C417.586700,640.646179 415.445374,638.829102 413.607880,638.043945   C411.784027,639.173767 411.630157,641.082825 410.931885,643.124512  z"/>
<path fill="#000000" opacity="1.000000" stroke="none" d=" M152.633362,623.912537   C151.478882,619.499329 152.856537,618.287048 156.844894,619.535706   C158.377945,620.015747 159.920853,620.629272 161.695068,620.256592   C163.582474,619.860107 165.384232,620.377197 166.342026,622.275818   C167.023285,623.626221 166.613403,624.896606 165.460831,625.831299   C163.457001,627.456299 162.199570,625.336121 160.604721,624.676697   C157.432938,626.570801 156.740067,629.974792 155.414246,632.935425   C154.560242,634.842529 153.511017,636.159729 151.267960,635.165588   C149.113968,634.210876 149.853317,632.465881 150.358215,630.890259   C151.066711,628.679260 151.847900,626.491455 152.633362,623.912537  z"/>
<path fill="#000000" opacity="1.000000" stroke="none" d=" M465.533630,631.859497   C469.004791,629.706177 472.789856,631.384644 476.268768,629.980835   C478.075226,629.251892 479.974487,630.711975 479.720825,632.997131   C479.490051,635.076111 478.169006,636.241882 475.831299,635.289429   C475.269409,635.060425 474.619904,635.046692 474.062714,634.943542   C472.026398,637.608643 471.467865,640.492432 471.154480,643.478943   C470.922729,645.687317 469.980530,647.429077 467.415649,647.081665   C464.793396,646.726440 465.274994,644.725647 465.451782,642.858032   C465.788055,639.305115 467.010040,635.728088 465.533630,631.859497  z"/>
<path fill="#000000" opacity="1.000000" stroke="none" d=" M188.782532,637.104858   C189.116714,641.123474 186.235077,640.253845 184.238907,640.015320   C181.421692,639.678772 180.457870,637.588623 180.860031,634.910583   C181.368027,631.527649 183.666183,628.437744 182.257797,624.506531   C184.736191,623.153992 187.133926,621.845581 189.820908,620.379211   C191.053925,622.437744 192.109787,624.200500 193.162140,625.957397   C187.453873,629.521057 185.776367,633.676758 188.782532,637.104858  z"/>
<path fill="#000000" opacity="1.000000" stroke="none" d=" M575.815613,630.891541   C577.358765,632.065063 578.719482,633.041748 576.815063,634.540588   C575.142822,635.856628 573.223267,636.375732 571.460083,634.621765   C570.073242,633.242126 569.885620,631.417419 569.891418,629.560059   C569.901062,626.462952 570.451233,623.326904 568.808838,620.653442   C570.794861,618.640259 572.817383,618.331909 574.619690,619.309937   C576.771912,620.477905 576.001404,622.782349 575.808228,624.696899   C575.610046,626.660034 575.037903,628.598145 575.815613,630.891541  z"/>
<path fill="#000000" opacity="1.000000" stroke="none" d=" M573.855774,612.429565   C576.432190,613.688782 576.419678,615.301270 574.651184,616.749817   C573.443542,617.739014 571.650146,617.960327 570.829346,616.273621   C569.586731,613.719849 571.197449,612.691772 573.855774,612.429565  z"/>
<path fill="#000000" opacity="1.000000" stroke="none" d=" M350.876648,300.397095   C325.808716,293.972961 311.800232,271.759735 313.089386,250.483475   C314.476044,227.598282 330.405487,207.291306 346.387695,205.807083   C348.227325,209.108902 346.608582,210.909576 343.719696,212.450378   C329.094086,220.251129 321.128845,232.755295 320.644989,249.034897   C320.052643,268.964417 333.418610,287.517029 354.275909,291.540649   C377.705292,296.060455 398.385132,282.484802 404.246887,259.403198   C408.664429,242.008331 400.006683,222.462921 383.897369,213.462860   C378.400757,210.391968 378.400757,210.391968 379.605865,205.812851   C396.711823,208.579575 417.272736,232.742325 412.062256,261.411346   C407.021179,289.148376 378.546051,307.434845 350.876648,300.397095  z"/>
<path fill="#000000" opacity="1.000000" stroke="none" d=" M409.307983,314.472900   C418.616852,309.930573 422.389648,302.265106 423.640717,292.776703   C424.472931,286.465118 428.390411,283.287720 433.931030,283.731842   C439.369659,284.167786 442.385651,288.044586 442.354004,294.594482   C442.249786,316.171234 424.589050,335.170624 400.816528,335.944214   C395.196838,336.127106 390.973663,332.226257 390.691223,327.064941   C390.381927,321.412476 393.502930,317.710175 399.234863,316.700439   C402.495605,316.126007 405.714691,315.315094 409.307983,314.472900  M431.334412,311.812714   C434.579041,306.620056 435.952881,300.832703 436.585938,294.845490   C436.843231,292.412292 435.906860,290.451080 433.165710,290.313812   C430.734344,290.192017 429.659729,291.851746 429.371185,294.077606   C429.264618,294.899445 429.305298,295.740051 429.204712,296.563080   C427.554352,310.069824 416.308350,321.297852 403.366669,322.274445   C400.288116,322.506775 396.493256,322.591980 396.866364,326.547913   C397.248535,330.599823 401.288025,329.584259 404.175934,329.607941   C404.990509,329.614624 405.815186,329.379944 406.621948,329.197266   C416.965546,326.855072 425.253754,321.519623 431.334412,311.812714  z"/>
<path fill="#000000" opacity="1.000000" stroke="none" d=" M324.067932,294.858612   C332.458496,303.132141 333.733795,313.682007 327.664948,322.646698   C322.313873,330.551147 311.484344,333.804871 302.472534,330.215698   C292.910370,326.407379 287.718170,316.436005 289.778229,305.836761   C292.219513,293.275787 307.583435,285.859589 319.178528,291.691406   C320.798523,292.506226 322.263306,293.629578 324.067932,294.858612  M306.951569,324.997742   C310.119080,325.692749 313.932526,326.621246 315.396393,323.104248   C316.169220,321.247589 317.143646,320.518433 318.448425,319.944244   C324.047913,317.480164 325.966980,313.870636 324.667969,307.751160   C323.355652,301.569092 321.053619,299.863251 314.250946,300.014923   C311.922485,300.066803 309.591980,300.170837 307.265137,300.122131   C301.409668,299.999542 298.889526,304.539612 296.337463,308.451721   C294.051605,311.955811 296.100861,315.467834 298.128235,318.643127   C300.092041,321.718933 302.721771,323.860474 306.951569,324.997742  z"/>
</svg>